<svg width="60" height="70" viewBox="0 0 60 70" fill="none" xmlns="http://www.w3.org/2000/svg">
<path d="M49.1711 54.4956C47.3988 53.7201 45.3878 52.8434 43.1 51.7956L42.9966 51.749L42.9155 51.8279C42.15 52.5713 41.3022 53.2745 40.3932 53.9191L40.1599 54.0835L40.4187 54.2046C43.2921 55.5402 45.781 56.6346 47.8866 57.5558C55.6988 60.9647 56.6855 61.6303 56.6855 63.488C56.6855 64.7635 55.4277 66.3058 53.8677 66.3058H6.13112C4.57109 66.3058 3.31328 64.7636 3.31328 63.488C3.31328 61.6301 4.30104 60.9647 12.1122 57.5558C14.2178 56.6347 16.7078 55.5403 19.5801 54.2046L19.8389 54.0835L19.6056 53.9191C18.6978 53.2747 17.849 52.5702 17.0833 51.8279L17.0022 51.749L16.8988 51.7956C14.6099 52.8423 12.5999 53.7201 10.8277 54.4956C2.94779 57.9356 0 59.2235 0 63.489C0 66.6979 2.92227 69.6201 6.13112 69.6201H53.8689C57.0777 69.6201 60 66.6979 60 63.489C60 59.2235 57.0522 57.9356 49.1711 54.4956Z" fill="#6F6F6F"/>
<path d="M53.3281 20H49.9948C49.9948 8.95443 41.0404 0 29.9948 0C18.9492 0 9.99479 8.95443 9.99479 20H6.66146C4.82031 20 3.32812 21.4922 3.32812 23.3333V33.3333C3.32812 35.1745 4.82031 36.6667 6.66146 36.6667H9.99479C10.9792 36.6667 11.8404 36.2211 12.4514 35.5434C12.5526 35.6867 12.6426 35.8323 12.7625 35.9711C15.0703 45.1056 21.9215 51.749 29.9948 51.749C38.2637 51.749 45.2359 44.7734 47.3725 35.2968C47.9803 36.1078 48.9036 36.6668 49.9948 36.6668H53.3281C55.1693 36.6668 56.6615 35.1746 56.6615 33.3335V23.3335C56.6615 21.4922 55.1693 20 53.3281 20ZM9.99479 33.3333H6.66146V23.3333H9.99479V33.3333ZM29.9948 48.4356C24.6026 48.4356 19.8892 44.6322 17.3159 38.9878C21.2659 40.7066 26.4436 41.6667 29.9948 41.6667C30.9159 41.6667 31.6615 40.9211 31.6615 40C31.6615 39.0789 30.9159 38.3333 29.9948 38.3333C24.1348 38.3333 17.8859 35.9912 15.7882 34.3201C15.4426 32.6889 15.2426 30.9801 15.2426 29.2078C15.2426 18.6056 21.8615 9.98008 29.9948 9.98008C38.1281 9.98008 44.747 18.6056 44.747 29.2078C44.747 39.81 38.1281 48.4356 29.9948 48.4356ZM46.6215 20.3978C43.8659 12.3345 37.4514 6.66667 29.9948 6.66667C22.5382 6.66667 16.1237 12.3345 13.3681 20.3978C13.3647 20.2622 13.3281 20.1356 13.3281 20C13.3281 10.81 20.8048 3.33333 29.9948 3.33333C39.1848 3.33333 46.6615 10.81 46.6615 20C46.6615 20.1356 46.6247 20.2622 46.6215 20.3978ZM53.3281 33.3333H49.9948V23.3333H53.3281V33.3333Z" fill="#6F6F6F"/>
</svg>
