<svg width="15" height="15" viewBox="0 0 15 15" fill="none" xmlns="http://www.w3.org/2000/svg">
<path d="M11.1333 3.8H11.14M4.13334 0.800003H10.8C12.641 0.800003 14.1333 2.29239 14.1333 4.13334V10.8C14.1333 12.641 12.641 14.1333 10.8 14.1333H4.13334C2.29239 14.1333 0.800003 12.641 0.800003 10.8V4.13334C0.800003 2.29239 2.29239 0.800003 4.13334 0.800003ZM10.1333 7.04667C10.2156 7.6015 10.1208 8.16815 9.86251 8.66601C9.60418 9.16388 9.19543 9.56761 8.69442 9.81979C8.19341 10.072 7.62563 10.1597 7.07186 10.0706C6.51809 9.98151 6.00651 9.72006 5.6099 9.32344C5.21328 8.92683 4.95182 8.41525 4.86271 7.86148C4.7736 7.30771 4.86138 6.73993 5.11355 6.23892C5.36573 5.73791 5.76946 5.32916 6.26733 5.07083C6.76519 4.8125 7.33184 4.71773 7.88667 4.8C8.45262 4.88393 8.97657 5.14765 9.38113 5.55221C9.78569 5.95677 10.0494 6.48072 10.1333 7.04667Z" stroke="#DCDCDC" stroke-width="1.6" stroke-linecap="round" stroke-linejoin="round"/>
</svg>
