<svg width="15" height="15" viewBox="0 0 15 15" fill="none" xmlns="http://www.w3.org/2000/svg">
<path d="M10.1333 4.8C11.1942 4.8 12.2116 5.22143 12.9618 5.97158C13.7119 6.72172 14.1333 7.73914 14.1333 8.8V13.4667H11.4667V8.8C11.4667 8.44638 11.3262 8.10724 11.0761 7.85719C10.8261 7.60715 10.487 7.46667 10.1333 7.46667C9.77971 7.46667 9.44058 7.60715 9.19053 7.85719C8.94048 8.10724 8.8 8.44638 8.8 8.8V13.4667H6.13334V8.8C6.13334 7.73914 6.55476 6.72172 7.30491 5.97158C8.05505 5.22143 9.07247 4.8 10.1333 4.8Z" stroke="#DCDCDC" stroke-width="1.6" stroke-linecap="round" stroke-linejoin="round"/>
<path d="M3.46667 5.46667H0.800003V13.4667H3.46667V5.46667Z" stroke="#DCDCDC" stroke-width="1.6" stroke-linecap="round" stroke-linejoin="round"/>
<path d="M2.13334 3.46667C2.86972 3.46667 3.46667 2.86972 3.46667 2.13334C3.46667 1.39696 2.86972 0.800003 2.13334 0.800003C1.39696 0.800003 0.800003 1.39696 0.800003 2.13334C0.800003 2.86972 1.39696 3.46667 2.13334 3.46667Z" stroke="#DCDCDC" stroke-width="1.6" stroke-linecap="round" stroke-linejoin="round"/>
</svg>
